<mxfile host="app.diagrams.net" agent="Mozilla/5.0 (Macintosh; Intel Mac OS X 10_15_7) AppleWebKit/537.36 (KHTML, like Gecko) Chrome/126.0.0.0 Safari/537.36" version="24.7.6">
  <diagram name="Page-1" id="5348f1db-0dfa-24cf-5d06-2057accb5106">
    <mxGraphModel dx="984" dy="666" grid="1" gridSize="10" guides="1" tooltips="1" connect="1" arrows="1" fold="1" page="1" pageScale="1.5" pageWidth="826" pageHeight="1169" background="none" math="0" shadow="0">
      <root>
        <mxCell id="0" style=";html=1;" />
        <mxCell id="1" style=";html=1;" parent="0" />
        <mxCell id="55dd390204d0f602-3" value="" style="whiteSpace=wrap;html=1;rounded=0;shadow=0;dashed=0;strokeColor=none;strokeWidth=4;fillColor=#08585C;gradientColor=none;fontFamily=Helvetica;fontSize=100;fontColor=#FFFFFF;align=center;" parent="1" vertex="1">
          <mxGeometry x="200" y="270" width="880" height="1280" as="geometry" />
        </mxCell>
        <mxCell id="55dd390204d0f602-1" value="Log-Man" style="whiteSpace=wrap;html=1;rounded=0;shadow=0;dashed=0;strokeColor=none;strokeWidth=4;fillColor=#333333;gradientColor=none;fontFamily=Helvetica;fontSize=100;fontColor=#FFFFFF;align=center;" parent="1" vertex="1">
          <mxGeometry x="200" y="80" width="880" height="200" as="geometry" />
        </mxCell>
        <mxCell id="55dd390204d0f602-2" value="" style="ellipse;whiteSpace=wrap;html=1;rounded=0;shadow=0;dashed=0;strokeColor=#FEF15B;strokeWidth=4;fillColor=none;gradientColor=none;fontFamily=Helvetica;fontSize=100;fontColor=#FFFFFF;align=center;" parent="1" vertex="1">
          <mxGeometry x="260" y="330" width="200" height="200" as="geometry" />
        </mxCell>
        <mxCell id="55dd390204d0f602-4" value="" style="ellipse;whiteSpace=wrap;html=1;rounded=0;shadow=0;dashed=0;strokeColor=none;strokeWidth=4;fillColor=#F49731;gradientColor=none;fontFamily=Helvetica;fontSize=100;fontColor=#FFFFFF;align=center;" parent="1" vertex="1">
          <mxGeometry x="275" y="344" width="170" height="170" as="geometry" />
        </mxCell>
        <mxCell id="55dd390204d0f602-5" value="" style="endArrow=none;html=1;dashed=1;dashPattern=1 1;labelBackgroundColor=none;strokeColor=#F49731;fontFamily=Helvetica;fontSize=100;fontColor=#FFFFFF;strokeWidth=16;" parent="1" edge="1">
          <mxGeometry width="50" height="50" relative="1" as="geometry">
            <mxPoint x="269.5882352941177" y="580" as="sourcePoint" />
            <mxPoint x="1029" y="580" as="targetPoint" />
          </mxGeometry>
        </mxCell>
        <mxCell id="55dd390204d0f602-6" value="Use-Case" style="whiteSpace=wrap;html=1;rounded=0;shadow=0;dashed=0;strokeColor=none;strokeWidth=4;fillColor=#F49731;gradientColor=none;fontFamily=Helvetica;fontSize=30;fontColor=#FFFFFF;align=center;fontStyle=1" parent="1" vertex="1">
          <mxGeometry x="660" y="320" width="240" height="60" as="geometry" />
        </mxCell>
        <mxCell id="55dd390204d0f602-8" value="In cloud environment and servers there are lot of processes that produces logs of 1000 lines for each second. For managers and team-leads they need to manage the error rates and bugs to its lowest. For each process logs have error printed and for large softwares the tracking each error is hard.&lt;br&gt;&lt;br&gt;We can look for logs of each process and create time-serise data that how much error are getting and which files and packages having error. This will help team to reduce error rates.&amp;nbsp;" style="text;spacingTop=-5;fillColor=#ffffff;whiteSpace=wrap;html=1;align=left;fontSize=14;fontFamily=Helvetica;fillColor=none;strokeColor=none;rounded=0;shadow=0;dashed=0;fontColor=#FEF15B;" parent="1" vertex="1">
          <mxGeometry x="515" y="400" width="535" height="130" as="geometry" />
        </mxCell>
        <mxCell id="55dd390204d0f602-9" value="" style="ellipse;whiteSpace=wrap;html=1;rounded=0;shadow=0;dashed=0;strokeColor=#FEF15B;strokeWidth=4;fillColor=none;gradientColor=none;fontFamily=Helvetica;fontSize=100;fontColor=#FFFFFF;align=center;" parent="1" vertex="1">
          <mxGeometry x="810" y="600" width="150" height="150" as="geometry" />
        </mxCell>
        <mxCell id="55dd390204d0f602-10" value="" style="ellipse;whiteSpace=wrap;html=1;rounded=0;shadow=0;dashed=0;strokeColor=none;strokeWidth=4;fillColor=#F49731;gradientColor=none;fontFamily=Helvetica;fontSize=100;fontColor=#FFFFFF;align=center;" parent="1" vertex="1">
          <mxGeometry x="820" y="610" width="130" height="130" as="geometry" />
        </mxCell>
        <mxCell id="55dd390204d0f602-11" value="" style="endArrow=none;html=1;dashed=1;dashPattern=1 1;labelBackgroundColor=none;strokeColor=#F49731;fontFamily=Helvetica;fontSize=100;fontColor=#FFFFFF;strokeWidth=16;" parent="1" edge="1">
          <mxGeometry width="50" height="50" relative="1" as="geometry">
            <mxPoint x="265.5882352941175" y="780" as="sourcePoint" />
            <mxPoint x="1025" y="780" as="targetPoint" />
          </mxGeometry>
        </mxCell>
        <mxCell id="55dd390204d0f602-12" value="STAGE 1: pre-requisite&amp;nbsp;" style="whiteSpace=wrap;html=1;rounded=0;shadow=0;dashed=0;strokeColor=none;strokeWidth=4;fillColor=#F49731;gradientColor=none;fontFamily=Helvetica;fontSize=30;fontColor=#FFFFFF;align=center;fontStyle=1" parent="1" vertex="1">
          <mxGeometry x="385" y="640" width="355" height="60" as="geometry" />
        </mxCell>
        <mxCell id="55dd390204d0f602-13" value="We need understanding of docker, kubernetes, prometheus, python and text processing." style="text;spacingTop=-5;fillColor=#ffffff;whiteSpace=wrap;html=1;align=left;fontSize=14;fontFamily=Helvetica;fillColor=none;strokeColor=none;rounded=0;shadow=0;dashed=0;fontColor=#FEF15B;" parent="1" vertex="1">
          <mxGeometry x="270" y="710" width="535" height="130" as="geometry" />
        </mxCell>
        <mxCell id="55dd390204d0f602-16" value="" style="endArrow=none;html=1;dashed=1;dashPattern=1 1;labelBackgroundColor=none;strokeColor=#F49731;fontFamily=Helvetica;fontSize=100;fontColor=#FFFFFF;strokeWidth=16;" parent="1" edge="1">
          <mxGeometry width="50" height="50" relative="1" as="geometry">
            <mxPoint x="259.9982352941176" y="1050.0000000000002" as="sourcePoint" />
            <mxPoint x="1019.41" y="1050.0000000000002" as="targetPoint" />
          </mxGeometry>
        </mxCell>
        <mxCell id="55dd390204d0f602-17" value="STAGE 2 : data exploring" style="whiteSpace=wrap;html=1;rounded=0;shadow=0;dashed=0;strokeColor=none;strokeWidth=4;fillColor=#F49731;gradientColor=none;fontFamily=Helvetica;fontSize=30;fontColor=#FFFFFF;align=center;fontStyle=1" parent="1" vertex="1">
          <mxGeometry x="515" y="817" width="385" height="60" as="geometry" />
        </mxCell>
        <mxCell id="55dd390204d0f602-18" value="&lt;ul&gt;&lt;li&gt;We need docker setup in your laptop to replicate the process or We can have the Kubernetes (container orchestrating tool) setup.&lt;/li&gt;&lt;li&gt;For each container we have log files stored at particular directory&lt;/li&gt;&lt;li&gt;We will read each log file and process on them.&lt;/li&gt;&lt;/ul&gt;" style="text;spacingTop=-5;fillColor=#ffffff;whiteSpace=wrap;html=1;align=left;fontSize=14;fontFamily=Helvetica;fillColor=none;strokeColor=none;rounded=0;shadow=0;dashed=0;fontColor=#FEF15B;" parent="1" vertex="1">
          <mxGeometry x="490" y="920" width="535" height="130" as="geometry" />
        </mxCell>
        <mxCell id="55dd390204d0f602-19" value="" style="ellipse;whiteSpace=wrap;html=1;rounded=0;shadow=0;dashed=0;strokeColor=#FEF15B;strokeWidth=4;fillColor=none;gradientColor=none;fontFamily=Helvetica;fontSize=100;fontColor=#FFFFFF;align=center;" parent="1" vertex="1">
          <mxGeometry x="820" y="1080" width="200" height="200" as="geometry" />
        </mxCell>
        <mxCell id="55dd390204d0f602-20" value="" style="ellipse;whiteSpace=wrap;html=1;rounded=0;shadow=0;dashed=0;strokeColor=none;strokeWidth=4;fillColor=#F49731;gradientColor=none;fontFamily=Helvetica;fontSize=100;fontColor=#FFFFFF;align=center;" parent="1" vertex="1">
          <mxGeometry x="835" y="1095" width="170" height="170" as="geometry" />
        </mxCell>
        <mxCell id="55dd390204d0f602-22" value="STAGE 3 : data extraction" style="whiteSpace=wrap;html=1;rounded=0;shadow=0;dashed=0;strokeColor=none;strokeWidth=4;fillColor=#F49731;gradientColor=none;fontFamily=Helvetica;fontSize=30;fontColor=#FFFFFF;align=center;fontStyle=1" parent="1" vertex="1">
          <mxGeometry x="362.5" y="1110" width="400" height="60" as="geometry" />
        </mxCell>
        <mxCell id="55dd390204d0f602-23" value="&lt;ul&gt;&lt;li&gt;We need data extracting model that detect the error line and cause of the error like package, file, library etc.&lt;/li&gt;&lt;li&gt;for this we need to create text recognition model in python.&amp;nbsp;&lt;/li&gt;&lt;li&gt;We also need to find the metadata for each log like date, time etc.&amp;nbsp;&amp;nbsp;&lt;/li&gt;&lt;/ul&gt;" style="text;spacingTop=-5;fillColor=#ffffff;whiteSpace=wrap;html=1;align=left;fontSize=14;fontFamily=Helvetica;fillColor=none;strokeColor=none;rounded=0;shadow=0;dashed=0;fontColor=#FEF15B;" parent="1" vertex="1">
          <mxGeometry x="240" y="1190" width="535" height="90" as="geometry" />
        </mxCell>
        <mxCell id="55dd390204d0f602-25" value="" style="shape=mxgraph.signs.transportation.airplane_3;html=1;fillColor=#FFFFFF;strokeColor=none;verticalLabelPosition=bottom;verticalAlign=top;align=center;rounded=0;shadow=0;dashed=0;fontFamily=Helvetica;fontSize=14;fontColor=#FEF15B;" parent="1" vertex="1">
          <mxGeometry x="836.5" y="621" width="97" height="98" as="geometry" />
        </mxCell>
        <mxCell id="qIXcpCow0f2DOApwsdZ7-1" value="" style="shape=mxgraph.signs.sports.surfing;html=1;pointerEvents=1;fillColor=#f5f5f5;strokeColor=#FFFFFF;verticalLabelPosition=bottom;verticalAlign=top;align=center;sketch=0;fontColor=#333333;" vertex="1" parent="1">
          <mxGeometry x="307" y="380.5" width="96" height="99" as="geometry" />
        </mxCell>
        <mxCell id="qIXcpCow0f2DOApwsdZ7-6" value="" style="ellipse;whiteSpace=wrap;html=1;rounded=0;shadow=0;dashed=0;strokeColor=#FEF15B;strokeWidth=4;fillColor=none;gradientColor=none;fontFamily=Helvetica;fontSize=100;fontColor=#FFFFFF;align=center;" vertex="1" parent="1">
          <mxGeometry x="260" y="817" width="200" height="200" as="geometry" />
        </mxCell>
        <mxCell id="qIXcpCow0f2DOApwsdZ7-7" value="" style="ellipse;whiteSpace=wrap;html=1;rounded=0;shadow=0;dashed=0;strokeColor=none;strokeWidth=4;fillColor=#F49731;gradientColor=none;fontFamily=Helvetica;fontSize=100;fontColor=#FFFFFF;align=center;" vertex="1" parent="1">
          <mxGeometry x="275" y="832" width="170" height="170" as="geometry" />
        </mxCell>
        <mxCell id="qIXcpCow0f2DOApwsdZ7-13" value="" style="shape=mxgraph.signs.sports.hiking;html=1;pointerEvents=1;verticalLabelPosition=bottom;verticalAlign=top;align=center;sketch=0;strokeColor=none;" vertex="1" parent="1">
          <mxGeometry x="310" y="870.5" width="98" height="93" as="geometry" />
        </mxCell>
        <mxCell id="qIXcpCow0f2DOApwsdZ7-14" value="" style="shape=mxgraph.signs.science.microscope;html=1;pointerEvents=1;verticalLabelPosition=bottom;verticalAlign=top;align=center;sketch=0;strokeColor=none;" vertex="1" parent="1">
          <mxGeometry x="888" y="1170.5" width="64" height="99" as="geometry" />
        </mxCell>
        <mxCell id="qIXcpCow0f2DOApwsdZ7-15" value="" style="endArrow=none;html=1;dashed=1;dashPattern=1 1;labelBackgroundColor=none;strokeColor=#F49731;fontFamily=Helvetica;fontSize=100;fontColor=#FFFFFF;strokeWidth=16;" edge="1" parent="1">
          <mxGeometry width="50" height="50" relative="1" as="geometry">
            <mxPoint x="260.58823529411757" y="1300.0000000000002" as="sourcePoint" />
            <mxPoint x="1019.9999999999999" y="1300.0000000000002" as="targetPoint" />
          </mxGeometry>
        </mxCell>
        <mxCell id="qIXcpCow0f2DOApwsdZ7-16" value="STAGE 4 : store data" style="whiteSpace=wrap;html=1;rounded=0;shadow=0;dashed=0;strokeColor=none;strokeWidth=4;fillColor=#F49731;gradientColor=none;fontFamily=Helvetica;fontSize=30;fontColor=#FFFFFF;align=center;fontStyle=1" vertex="1" parent="1">
          <mxGeometry x="557.5" y="1330" width="400" height="60" as="geometry" />
        </mxCell>
        <mxCell id="qIXcpCow0f2DOApwsdZ7-17" value="" style="ellipse;whiteSpace=wrap;html=1;rounded=0;shadow=0;dashed=0;strokeColor=#FEF15B;strokeWidth=4;fillColor=none;gradientColor=none;fontFamily=Helvetica;fontSize=100;fontColor=#FFFFFF;align=center;" vertex="1" parent="1">
          <mxGeometry x="295" y="1340" width="150" height="150" as="geometry" />
        </mxCell>
        <mxCell id="qIXcpCow0f2DOApwsdZ7-18" value="" style="ellipse;whiteSpace=wrap;html=1;rounded=0;shadow=0;dashed=0;strokeColor=none;strokeWidth=4;fillColor=#F49731;gradientColor=none;fontFamily=Helvetica;fontSize=100;fontColor=#FFFFFF;align=center;" vertex="1" parent="1">
          <mxGeometry x="307.5" y="1352.5" width="125" height="125" as="geometry" />
        </mxCell>
        <mxCell id="qIXcpCow0f2DOApwsdZ7-20" value="" style="shape=mxgraph.signs.safety.handle_with_care;html=1;pointerEvents=1;fillColor=#FFFFFF;strokeColor=none;verticalLabelPosition=bottom;verticalAlign=top;align=center;sketch=0;" vertex="1" parent="1">
          <mxGeometry x="334.75" y="1377.75" width="70.5" height="74.5" as="geometry" />
        </mxCell>
        <mxCell id="qIXcpCow0f2DOApwsdZ7-21" value="&lt;ul&gt;&lt;li&gt;store the time-serise data or if possible create dashboard.&amp;nbsp;&lt;/li&gt;&lt;li&gt;there is time-serise data management tool - Prometheus that help us to store and display data.&lt;/li&gt;&lt;/ul&gt;" style="text;spacingTop=-5;fillColor=#ffffff;whiteSpace=wrap;html=1;align=left;fontSize=14;fontFamily=Helvetica;fillColor=none;strokeColor=none;rounded=0;shadow=0;dashed=0;fontColor=#FEF15B;" vertex="1" parent="1">
          <mxGeometry x="460" y="1410" width="535" height="90" as="geometry" />
        </mxCell>
      </root>
    </mxGraphModel>
  </diagram>
</mxfile>
